<svg width="42" height="39" viewBox="0 0 42 39" fill="none" xmlns="http://www.w3.org/2000/svg">
<g clip-path="url(#clip0_2715_1914)" filter="url(#filter0_d_2715_1914)">
<path d="M21.8847 19.6012C21.8847 19.6012 21.6615 33.7747 21.6671 34.1753C21.6727 34.5758 21.9272 34.8064 21.9272 34.8064L24.2095 37.0013C24.2095 37.0013 24.6856 37.5405 25.4945 37.5697C25.3762 37.5622 25.22 37.5343 25.0694 37.4495C24.7866 37.2915 24.5154 36.9399 24.5159 36.1718C24.5153 34.5635 24.9132 21.4987 24.9132 21.4987C24.9132 21.4987 24.9126 21.422 24.935 21.3091L21.872 19.3493C21.8538 19.495 21.8847 19.6012 21.8847 19.6012Z" fill="#EDE5DA"/>
<path d="M22.5037 18.6524L25.4301 20.5866C25.5873 20.4975 25.7915 20.4391 26.0601 20.4369C27.2166 20.4288 40.5072 20.4895 40.5072 20.4895C40.5072 20.4895 40.7886 20.4474 41.0405 20.6124L41.0499 20.6023C41.0499 20.6023 38.3106 18.9818 37.8107 18.6995C37.4291 18.4837 36.9422 18.4925 36.9422 18.4925L23.1075 18.5126C22.8655 18.5414 22.6708 18.5897 22.5131 18.6488C22.5094 18.6497 22.5066 18.6506 22.5037 18.6524Z" fill="#DFCECB"/>
<path d="M21.8722 19.3503L24.9352 21.3101C24.9749 21.103 25.0913 20.7756 25.4301 20.5865L22.5038 18.6524C22.0289 18.8373 21.899 19.1365 21.8722 19.3503Z" fill="#E4CEB8"/>
<path d="M24.5152 36.1718C24.5147 36.9399 24.7859 37.2915 25.0686 37.4496C25.2202 37.5335 25.3764 37.5622 25.4938 37.5698C25.5087 37.5709 25.5208 37.5711 25.5329 37.5713L41.0405 20.6125C40.7886 20.4474 40.5072 20.4896 40.5072 20.4896C40.5072 20.4896 27.2166 20.4288 26.0601 20.4369C25.2161 20.4427 24.9933 21.007 24.9352 21.3092C24.9119 21.422 24.9134 21.4987 24.9134 21.4987C24.9134 21.4987 24.5154 34.5635 24.5161 36.1718L24.5152 36.1718Z" fill="#EEE9DD"/>
<path d="M26.772 34.8373C26.7561 35.2374 27.1669 35.2058 27.1669 35.2058L38.7331 34.9913C39.1753 34.9808 39.1374 34.561 39.1374 34.561L39.3369 22.3996C39.3416 22.1115 39.0916 22.1177 39.0916 22.1177C39.0916 22.1177 27.428 22.2464 27.2264 22.2524C27.024 22.2575 26.9961 22.5387 26.9961 22.5387C26.9961 22.5387 26.7869 34.4361 26.771 34.8382L26.772 34.8373Z" fill="#F9F8FC"/>
<path d="M39.5391 26.3844L26.6876 26.4487L26.6864 26.2025L39.5378 26.1382L39.5391 26.3844Z" fill="#E8DDD0"/>
<path d="M39.5809 24.7146L39.5816 24.8377L26.7301 24.901L26.7289 24.6548L39.5806 24.5914L39.5809 24.7146Z" fill="#E8DDD0"/>
<path d="M39.5599 25.4618L39.5606 25.5849L26.7091 25.6482L26.7079 25.402L39.5596 25.3386L39.5599 25.4618Z" fill="#E8DDD0"/>
<path d="M39.2436 34.7719L26.5822 34.8964L26.58 34.6501L39.2414 34.5257L39.2436 34.7719Z" fill="#E8DDD0"/>
<path d="M39.4196 34.104L26.603 34.094L26.6032 33.8478L39.4198 33.8577L39.4196 34.104Z" fill="#E8DDD0"/>
<path d="M39.3056 32.4845L26.6444 32.5959L26.6422 32.3496L39.3034 32.2382L39.3056 32.4845Z" fill="#E8DDD0"/>
<path d="M39.4835 31.627L39.4844 31.7501L26.5678 31.8535L26.5661 31.6073L39.4824 31.5039L39.4835 31.627Z" fill="#E8DDD0"/>
<path d="M39.5041 30.8882L39.5047 31.0113L26.5887 31.0943L26.587 30.8481L39.5032 30.7651L39.5041 30.8882Z" fill="#E8DDD0"/>
<path d="M39.6705 30.1115L39.6714 30.2347L26.5059 30.3311L26.5042 30.0851L39.6694 29.9884L39.6705 30.1115Z" fill="#E8DDD0"/>
<path d="M39.6898 29.3934L39.6897 29.5165L26.5268 29.5288L26.5265 29.2826L39.6897 29.2703L39.6898 29.3934Z" fill="#E8DDD0"/>
<path d="M39.4075 28.5823L39.4081 28.7054L26.3822 28.7856L26.3804 28.5394L39.4066 28.4592L39.4075 28.5823Z" fill="#E8DDD0"/>
<path d="M39.8362 27.9779L26.5674 28.072L26.5657 27.8257L39.8345 27.7317L39.8362 27.9779Z" fill="#E8DDD0"/>
<path d="M39.7532 27.0498L39.7533 27.1729L26.4253 27.1808L26.425 26.9346L39.7533 26.9267L39.7532 27.0498Z" fill="#E8DDD0"/>
<path d="M39.4941 24.0203L26.6418 24.0836L26.6405 23.8374L39.4929 23.7741L39.4941 24.0203Z" fill="#E8DDD0"/>
<path d="M39.5331 22.4449L39.533 22.568L26.6829 22.5369L26.6836 22.2907L39.5335 22.3218L39.5331 22.4449Z" fill="#E8DDD0"/>
<path d="M39.5156 23.2199L26.6642 23.2842L26.663 23.0379L39.5144 22.9736L39.5156 23.2199Z" fill="#E8DDD0"/>
<path d="M39.2528 33.2986L26.5917 33.409L26.5895 33.1628L39.2507 33.0523L39.2528 33.2986Z" fill="#E8DDD0"/>
<path d="M24.3106 36.116C24.3101 36.8842 24.5813 37.2357 24.8641 37.3938C25.0156 37.4777 25.1718 37.5064 25.2892 37.514C25.3041 37.5152 25.3162 37.5154 25.3283 37.5156C25.4299 37.5182 25.4954 37.5061 25.4954 37.5061C25.4954 37.5061 38.0537 37.2976 39.7631 37.2396C41.0395 37.1969 40.9928 36.007 40.9928 36.007L41.2298 21.5558C41.2393 20.9787 41.0472 20.6949 40.8359 20.5567C40.584 20.3916 40.3026 20.4338 40.3026 20.4338C40.3026 20.4338 27.012 20.373 25.8555 20.3811C25.0115 20.387 24.7887 20.9512 24.7306 21.2534C24.7073 21.3662 24.7088 21.443 24.7088 21.443C24.7088 21.443 24.3108 34.5077 24.3115 36.1161L24.3106 36.116ZM26.9542 22.7073C26.9542 22.7073 26.9829 22.4308 27.19 22.4267C27.3962 22.4208 38.9377 22.4061 38.9377 22.4061C38.9377 22.4061 39.1942 22.4 39.1896 22.6825L38.7895 34.5076C38.7895 34.5076 38.8285 34.9189 38.3751 34.9293L26.9841 35.098C26.9841 35.098 26.563 35.1294 26.5797 34.7358C26.5955 34.3422 26.9551 22.7064 26.9551 22.7064L26.9542 22.7073Z" fill="#E51E25"/>
<path d="M31.4183 23.7451L36.504 23.7125C36.6952 23.711 36.8242 23.7514 36.8909 23.8321C36.9577 23.9127 36.9924 24.0704 36.9941 24.3053C36.9962 24.6309 36.9416 24.9509 36.8283 25.2644C36.7159 25.5788 36.5672 25.8271 36.3815 26.0102C36.2345 26.1547 36.044 26.2274 35.8109 26.2291L32.5774 26.25C32.2146 26.2525 32.035 26.3964 32.0369 26.6846C32.0377 26.8044 32.0801 26.8884 32.1633 26.9346C32.2465 26.9809 32.4296 27.0167 32.7118 27.0391C33.7565 27.1376 34.662 27.3639 35.4274 27.7179C35.9773 27.9683 36.4188 28.3386 36.7511 28.8287C36.9915 29.1816 37.114 29.5635 37.1166 29.9743C37.1205 30.6442 36.8387 31.2795 36.2702 31.8821C35.8195 32.3584 35.2296 32.7286 34.4998 32.9917C33.769 33.2548 32.9629 33.3894 32.0807 33.3946C31.3793 33.399 30.7419 33.3127 30.1686 33.134C29.6378 32.9746 29.3718 32.7008 29.3698 32.3135C29.3688 32.0889 29.4055 31.8949 29.481 31.7315C29.5564 31.568 29.6463 31.4862 29.7517 31.4861C29.8086 31.4861 29.8802 31.4994 29.9664 31.527C30.1576 31.5826 30.3927 31.6341 30.6717 31.6799C30.9517 31.7256 31.1742 31.748 31.3411 31.747C31.7468 31.7443 32.0728 31.6551 32.3191 31.4786C32.5654 31.3021 32.6886 31.0702 32.6867 30.7839C32.6842 30.4292 32.4866 30.1341 32.0942 29.8975C31.7165 29.6705 31.2351 29.511 30.6529 29.4192C30.1608 29.3409 29.866 29.2912 29.7685 29.2699C29.67 29.2487 29.5783 29.2097 29.4925 29.1531C29.3245 29.0484 29.2402 28.9011 29.2396 28.7092C29.2382 28.451 29.3445 27.9428 29.5593 27.1848C29.7731 26.4276 30.0191 25.6982 30.2964 24.9973C30.5165 24.4264 30.6864 24.0755 30.8052 23.9418C30.923 23.81 31.1283 23.7422 31.4193 23.7405L31.4183 23.7451Z" fill="#E51E25"/>
<path d="M4.70064 20.0117C4.70064 20.0117 4.47751 34.1852 4.48306 34.5858C4.48861 34.9863 4.74315 35.2169 4.74315 35.2169L7.02546 37.4118C7.02546 37.4118 7.50154 37.951 8.31051 37.9802C8.1922 37.9727 8.03599 37.9448 7.88537 37.86C7.60261 37.702 7.33141 37.3504 7.33188 36.5823C7.33122 34.974 7.7292 21.9092 7.7292 21.9092C7.7292 21.9092 7.72859 21.8325 7.75096 21.7196L4.68891 19.7598C4.67067 19.9055 4.70157 20.0117 4.70157 20.0117L4.70064 20.0117Z" fill="#D9BB9F"/>
<path d="M5.31966 19.0629L8.24598 20.9971C8.40317 20.908 8.60743 20.8496 8.87603 20.8474C10.0325 20.8393 23.3231 20.9001 23.3231 20.9001C23.3231 20.9001 23.6045 20.8579 23.8564 21.023L23.8659 21.0128C23.8659 21.0128 21.1265 19.3923 20.6266 19.11C20.245 18.8942 19.7581 18.903 19.7581 18.903L5.92345 18.9231C5.68145 18.9519 5.48668 19.0002 5.32905 19.0593C5.3253 19.0602 5.32249 19.0611 5.31966 19.0629Z" fill="#EDE5DA"/>
<path d="M4.68907 19.7598L7.75205 21.7196C7.79181 21.5126 7.90816 21.1851 8.24697 20.9961L5.32066 19.0619C4.84576 19.2469 4.71589 19.546 4.68907 19.7598Z" fill="#E4CEB8"/>
<path d="M7.33205 36.5823C7.33157 37.3505 7.60277 37.702 7.88554 37.8601C8.0371 37.944 8.1933 37.9727 8.31067 37.9803C8.32557 37.9815 8.33769 37.9817 8.34981 37.9819L23.8574 21.023C23.6055 20.8579 23.3241 20.9001 23.3241 20.9001C23.3241 20.9001 10.0335 20.8393 8.87702 20.8475C8.03297 20.8533 7.81017 21.4175 7.75206 21.7197C7.72876 21.8325 7.7303 21.9093 7.7303 21.9093C7.7303 21.9093 7.33231 34.9741 7.33298 36.5824L7.33205 36.5823Z" fill="#EEE9DD"/>
<path d="M9.58789 35.2478C9.572 35.648 9.98284 35.6163 9.98284 35.6163L21.549 35.4019C21.9912 35.3913 21.9533 34.9716 21.9533 34.9716L22.1528 22.8101C22.1575 22.522 21.9075 22.5282 21.9075 22.5282C21.9075 22.5282 10.2439 22.6569 10.0424 22.663C9.8399 22.6681 9.81198 22.9492 9.81198 22.9492C9.81198 22.9492 9.60286 34.8467 9.58695 35.2487L9.58789 35.2478Z" fill="#F9F8FC"/>
<path d="M22.356 26.7948L9.50358 26.8582L9.50234 26.6119L22.3547 26.5486L22.356 26.7948Z" fill="#E8DDD0"/>
<path d="M22.3984 25.2471L9.54604 25.3114L9.54481 25.0652L22.3972 25.0009L22.3984 25.2471Z" fill="#E8DDD0"/>
<path d="M22.3775 25.9944L9.52602 26.0587L9.52479 25.8125L22.3762 25.7482L22.3775 25.9944Z" fill="#E8DDD0"/>
<path d="M22.0593 35.0584L22.0604 35.1815L9.3981 35.3069L9.39591 35.0606L22.058 34.9352L22.0593 35.0584Z" fill="#E8DDD0"/>
<path d="M22.236 34.5145L9.41936 34.5046L9.41957 34.2583L22.2362 34.2683L22.236 34.5145Z" fill="#E8DDD0"/>
<path d="M22.1225 32.895L9.46133 33.0055L9.45914 32.7592L22.1203 32.6487L22.1225 32.895Z" fill="#E8DDD0"/>
<path d="M22.3004 32.0375L22.3013 32.1606L9.38473 32.264L9.38301 32.0178L22.2993 31.9144L22.3004 32.0375Z" fill="#E8DDD0"/>
<path d="M22.3209 31.2987L22.3216 31.4219L9.40559 31.5039L9.40387 31.2576L22.3201 31.1756L22.3209 31.2987Z" fill="#E8DDD0"/>
<path d="M22.4873 30.6442L9.32277 30.7406L9.32105 30.4946L22.4856 30.398L22.4873 30.6442Z" fill="#E8DDD0"/>
<path d="M22.5067 29.8039L22.5066 29.927L9.34372 29.9384L9.34344 29.6924L22.5066 29.6808L22.5067 29.8039Z" fill="#E8DDD0"/>
<path d="M22.2242 28.9927L22.2248 29.1158L9.19858 29.195L9.19735 28.9488L22.2233 28.8696L22.2242 28.9927Z" fill="#E8DDD0"/>
<path d="M22.6531 28.3885L9.3843 28.4825L9.38259 28.2362L22.6514 28.1422L22.6531 28.3885Z" fill="#E8DDD0"/>
<path d="M22.5701 27.4603L22.5702 27.5834L9.24218 27.5904L9.24191 27.3441L22.5702 27.3372L22.5701 27.4603Z" fill="#E8DDD0"/>
<path d="M22.3101 24.4298L9.45864 24.4941L9.4574 24.2479L22.3088 24.1836L22.3101 24.4298Z" fill="#E8DDD0"/>
<path d="M22.3493 22.8544L22.3489 22.9775L9.49979 22.9464L9.50047 22.7002L22.3494 22.7313L22.3493 22.8544Z" fill="#E8DDD0"/>
<path d="M22.3319 23.5072L22.3325 23.6303L9.48112 23.6936L9.47988 23.4474L22.3315 23.384L22.3319 23.5072Z" fill="#E8DDD0"/>
<path d="M22.0688 33.7081L9.40762 33.8186L9.40543 33.5723L22.0666 33.4618L22.0688 33.7081Z" fill="#E8DDD0"/>
<path d="M7.12746 36.5266C7.12698 37.2947 7.39818 37.6462 7.68095 37.8043C7.83251 37.8882 7.98871 37.917 8.10608 37.9245C8.12099 37.9257 8.13311 37.9259 8.14523 37.9261C8.24683 37.9287 8.31231 37.9166 8.31231 37.9166C8.31231 37.9166 20.8706 37.7081 22.58 37.6501C23.8564 37.6074 23.8097 36.4175 23.8097 36.4175L24.0467 21.9663C24.0562 21.3892 23.8641 21.1054 23.6528 20.9672C23.4009 20.8021 23.1195 20.8443 23.1195 20.8443C23.1195 20.8443 9.82892 20.7835 8.67243 20.7917C7.82838 20.7975 7.60558 21.3617 7.54747 21.6639C7.52417 21.7767 7.52571 21.8535 7.52571 21.8535C7.52571 21.8535 7.12772 34.9183 7.12839 36.5266L7.12746 36.5266ZM9.77014 23.1169C9.77014 23.1169 9.79892 22.8404 10.006 22.8363C10.2122 22.8303 21.7536 22.8157 21.7536 22.8157C21.7536 22.8157 22.0102 22.8096 22.0056 23.0921L21.6055 34.9171C21.6055 34.9171 21.6445 35.3285 21.1911 35.3388L9.80006 35.5075C9.80006 35.5075 9.37897 35.539 9.39568 35.1454C9.41146 34.7518 9.77109 23.116 9.77109 23.116L9.77014 23.1169Z" fill="#E9C31E"/>
<path d="M17.2319 33.1127L11.8675 33.3644C11.3766 33.3872 11.1316 33.2587 11.1371 32.9782C11.1395 32.835 11.1949 32.6994 11.3014 32.572C11.4079 32.4446 11.7483 32.1022 12.3197 31.5492C13.3649 30.5363 14.1289 29.6141 14.6229 28.7746C14.8761 28.3502 15.0032 27.9874 15.0064 27.6844C15.0088 27.4243 14.9366 27.2173 14.788 27.0651C14.6404 26.9121 14.4393 26.8368 14.1856 26.8382C13.9459 26.839 13.7635 26.8734 13.6365 26.9396C13.5096 27.0058 13.229 27.222 12.7903 27.59C12.6722 27.6863 12.5175 27.7352 12.3253 27.7377C12.0744 27.7401 11.8438 27.6456 11.6353 27.4532C11.4267 27.2598 11.3239 27.0495 11.3276 26.8203C11.331 26.6127 11.4328 26.3776 11.6311 26.1152C11.8284 25.8546 12.0861 25.6081 12.4032 25.3784C13.5494 24.5786 14.7904 24.1929 16.1236 24.2101C17.1231 24.2227 17.9385 24.427 18.5793 24.8201C18.8664 24.9979 19.0973 25.245 19.2721 25.5622C19.4469 25.8785 19.5347 26.2102 19.5356 26.5564C19.5379 27.4396 18.9503 28.4114 17.7548 29.4874C17.3233 29.8705 17.106 30.1579 17.1057 30.345C17.1052 30.491 17.1703 30.6127 17.3011 30.7103C17.431 30.8079 17.5897 30.8544 17.7754 30.8481C18.2149 30.8338 18.604 30.6456 18.9438 30.2844C19.1156 30.1048 19.2292 29.9962 19.2858 29.9588C19.3424 29.9214 19.4192 29.9011 19.5162 29.899C19.9444 29.8873 20.1583 30.265 20.1616 31.0332C20.1627 31.4187 20.0956 31.8124 19.9585 32.2144C19.8213 32.6191 19.6318 32.9725 19.3918 33.2754C19.1356 33.6015 18.853 33.7737 18.5441 33.7892C18.419 33.7955 18.3196 33.7733 18.244 33.7216C18.1693 33.6698 18.0842 33.5702 17.9887 33.4227C17.8987 33.279 17.8098 33.1896 17.7209 33.1507C17.632 33.1127 17.4699 33.0989 17.2319 33.1099L17.2319 33.1127Z" fill="#E9C31E"/>
<path d="M22.1163 2.08492C22.1163 2.08492 21.8447 16.2576 21.8484 16.6581C21.853 17.0596 22.1066 17.2902 22.1066 17.2902L24.3814 19.4925C24.3814 19.4925 24.8555 20.0335 25.6645 20.0655C25.5471 20.058 25.39 20.0292 25.2394 19.9444C24.9575 19.7854 24.6873 19.4329 24.6906 18.6648C24.6955 17.0566 25.1382 3.99352 25.1382 3.99352C25.1382 3.99352 25.1376 3.91679 25.1609 3.80396L22.1046 1.83398C22.0864 1.97964 22.1163 2.08585 22.1163 2.08585L22.1163 2.08492Z" fill="#D9BB9F"/>
<path d="M22.738 1.13802L25.6576 3.08237C25.8148 2.99419 26.0199 2.93674 26.2885 2.93553C27.4449 2.93205 40.7348 3.03774 40.7348 3.03774C40.7348 3.03774 41.0161 2.99651 41.268 3.1625L41.2775 3.15236C41.2775 3.15236 38.5439 1.52262 38.045 1.23843C37.6643 1.02074 37.1774 1.02773 37.1774 1.02773L23.3426 1.00011C23.1007 1.02795 22.9059 1.07528 22.7483 1.13444C22.7445 1.13532 22.7417 1.13621 22.7389 1.13803L22.738 1.13802Z" fill="#EDE5DA"/>
<path d="M22.1046 1.83302L25.1609 3.803C25.2016 3.59597 25.318 3.26854 25.6586 3.0814L22.739 1.13704C22.2632 1.32104 22.1324 1.61829 22.1056 1.8321L22.1046 1.83302Z" fill="#E4CEB8"/>
<path d="M24.6905 18.6648C24.6872 19.4329 24.9575 19.7854 25.2393 19.9444C25.3899 20.0292 25.5461 20.0579 25.6644 20.0655C25.6793 20.0667 25.6914 20.0668 25.7035 20.067L41.268 3.16149C41.0162 2.9955 40.7348 3.03673 40.7348 3.03673C40.7348 3.03673 27.4449 2.93104 26.2885 2.93453C25.4445 2.93753 25.2199 3.50082 25.1608 3.80299C25.1375 3.91488 25.1381 3.99254 25.1381 3.99254C25.1381 3.99254 24.6954 17.0556 24.6905 18.6639L24.6905 18.6648Z" fill="#EEE9DD"/>
<path d="M26.9511 17.3378C26.9334 17.7379 27.3451 17.7073 27.3451 17.7073L38.9125 17.5321C39.3547 17.5225 39.3187 17.1028 39.3187 17.1028L39.5591 4.942C39.5648 4.65393 39.3148 4.65919 39.3148 4.65919C39.3148 4.65919 27.6509 4.74764 27.4494 4.75275C27.247 4.75692 27.2181 5.03806 27.2181 5.03806C27.2181 5.03806 26.968 16.9348 26.9512 17.3359L26.9511 17.3378Z" fill="#F9F8FC"/>
<path d="M39.7476 8.9285L26.8959 8.9488L26.8956 8.70257L39.7473 8.68227L39.7476 8.9285Z" fill="#E8DDD0"/>
<path d="M39.7945 7.38175L26.9428 7.40108L26.9425 7.15486L39.7942 7.13552L39.7945 7.38175Z" fill="#E8DDD0"/>
<path d="M39.772 8.12894L26.9203 8.14828L26.9201 7.90205L39.7717 7.88271L39.772 8.12894Z" fill="#E8DDD0"/>
<path d="M39.4229 17.1914L39.4235 17.3145L26.7621 17.3959L26.7604 17.1497L39.422 17.0683L39.4229 17.1914Z" fill="#E8DDD0"/>
<path d="M39.6017 16.6475L26.7849 16.5936L26.786 16.3474L39.6029 16.4013L39.6017 16.6475Z" fill="#E8DDD0"/>
<path d="M39.4936 15.0282L26.8322 15.0946L26.831 14.8484L39.4923 14.7819L39.4936 15.0282Z" fill="#E8DDD0"/>
<path d="M39.6747 14.1707L39.675 14.2938L26.7575 14.3532L26.7563 14.1072L39.6741 14.0476L39.6747 14.1707Z" fill="#E8DDD0"/>
<path d="M39.6973 13.5551L26.7808 13.593L26.7801 13.3468L39.6965 13.3088L39.6973 13.5551Z" fill="#E8DDD0"/>
<path d="M39.8654 12.6554L39.8657 12.7785L26.701 12.8302L26.7002 12.584L39.8647 12.5322L39.8654 12.6554Z" fill="#E8DDD0"/>
<path d="M39.8873 12.0613L26.7248 12.0279L26.7255 11.7817L39.888 11.8151L39.8873 12.0613Z" fill="#E8DDD0"/>
<path d="M39.6091 11.1261L39.6093 11.2493L26.5821 11.2835L26.5814 11.0373L39.6088 11.003L39.6091 11.1261Z" fill="#E8DDD0"/>
<path d="M40.0388 10.5229L26.7698 10.5719L26.7691 10.3257L40.0381 10.2766L40.0388 10.5229Z" fill="#E8DDD0"/>
<path d="M39.9589 9.71781L26.6306 9.6798L26.6313 9.43358L39.9596 9.4716L39.9589 9.71781Z" fill="#E8DDD0"/>
<path d="M39.71 6.56351L26.8583 6.58381L26.858 6.33758L39.7097 6.31728L39.71 6.56351Z" fill="#E8DDD0"/>
<path d="M39.7546 4.9882L39.7537 5.1113L26.9053 5.03619L26.907 4.79L39.7551 4.8651L39.7546 4.9882Z" fill="#E8DDD0"/>
<path d="M39.7344 5.76407L26.8827 5.78341L26.8825 5.53718L39.7341 5.51784L39.7344 5.76407Z" fill="#E8DDD0"/>
<path d="M39.4374 15.8412L26.776 15.9086L26.7748 15.6623L39.4362 15.5949L39.4374 15.8412Z" fill="#E8DDD0"/>
<path d="M24.4864 18.6081C24.4831 19.3762 24.7533 19.7287 25.0352 19.8877C25.1858 19.9725 25.342 20.0012 25.4603 20.0088C25.4752 20.01 25.4873 20.0102 25.4994 20.0104C25.601 20.0139 25.6665 20.0009 25.6665 20.0009C25.6665 20.0009 38.225 19.8355 39.9343 19.784C41.2106 19.746 41.1686 18.5552 41.1686 18.5552L41.455 4.10484C41.4664 3.52775 41.2752 3.24394 41.0639 3.10388C40.8121 2.93789 40.5307 2.97911 40.5307 2.97911C40.5307 2.97911 27.2408 2.87342 26.0844 2.87691C25.2404 2.87991 25.0158 3.4432 24.9567 3.74537C24.9334 3.85726 24.934 3.93492 24.934 3.93492C24.934 3.93492 24.4913 16.998 24.4864 18.6063L24.4864 18.6081ZM27.1755 5.20762C27.1755 5.20762 27.2052 4.93117 27.4123 4.92801C27.6185 4.92297 39.1602 4.94854 39.1602 4.94854C39.1602 4.94854 39.4167 4.94339 39.4112 5.22585L38.9701 17.0493C38.9701 17.0493 39.0072 17.4606 38.5548 17.4701L27.1634 17.6004C27.1634 17.6004 26.7424 17.63 26.76 17.2373C26.7767 16.8437 27.1764 5.2095 27.1764 5.2095L27.1755 5.20762Z" fill="#0BAA4B"/>
<path d="M31.2854 6.16764C32.6401 6.24225 33.3003 6.58148 33.2932 7.1867C33.2905 7.35132 33.2548 7.48265 33.1869 7.58258C33.1181 7.6825 32.9867 7.79168 32.7955 7.91111C32.6277 8.01782 32.5209 8.16109 32.4741 8.34276C32.4273 8.52444 32.4007 8.89357 32.3944 9.45015C32.3909 9.77661 32.4445 9.97771 32.5542 10.0544C32.6178 10.1022 32.7134 10.1309 32.8419 10.1433C32.9704 10.1547 33.2714 10.1653 33.7441 10.173C34.1701 10.18 34.4344 10.16 34.5377 10.1122C34.6411 10.0643 34.6944 9.93976 34.6977 9.73866C34.7076 9.13536 34.6894 8.71311 34.6448 8.4738C34.5993 8.23354 34.5051 8.06545 34.3621 7.97235C34.1813 7.84963 34.0627 7.74571 34.0053 7.66243C33.9479 7.57916 33.9208 7.46925 33.9221 7.33454C33.9252 7.14373 33.9924 6.97362 34.1235 6.8242C34.2547 6.67478 34.4241 6.57745 34.6319 6.53221C35.0614 6.43914 35.5935 6.41045 36.227 6.44516C36.9584 6.48523 37.4892 6.58936 37.8268 6.75863C38.1644 6.9279 38.3236 7.16909 38.3157 7.48519C38.3094 7.75267 38.185 7.94804 37.9433 8.07132C37.791 8.14648 37.69 8.21873 37.6422 8.29093C37.5944 8.36312 37.5539 8.49905 37.5217 8.69875C37.5041 8.80979 37.4727 9.30328 37.4285 10.1783C37.3843 11.0495 37.3572 11.7386 37.3451 12.2483C37.324 13.1368 37.3399 13.6994 37.392 13.9369C37.4197 14.0665 37.4519 14.1522 37.4885 14.1958C37.526 14.2385 37.644 14.3219 37.8415 14.4477C37.9828 14.5351 38.0514 14.671 38.0465 14.8552C38.0384 15.1816 37.8619 15.4238 37.5142 15.5837C37.1647 15.7445 36.598 15.84 35.8067 15.8682C35.1022 15.8941 34.5763 15.8359 34.2354 15.6937C33.9243 15.5613 33.7702 15.3464 33.7742 15.0471C33.7784 14.7917 33.902 14.5898 34.145 14.4404C34.2637 14.3656 34.3461 14.293 34.3892 14.2208C34.4324 14.1485 34.4765 14.0154 34.5198 13.8234C34.5987 13.4458 34.6426 12.9843 34.6516 12.4362C34.6563 12.1528 34.6219 11.9763 34.5474 11.9096C34.473 11.841 34.2768 11.8069 33.956 11.8063C33.2137 11.8045 32.7346 11.849 32.5261 11.941C32.4415 11.978 32.3866 12.0856 32.3641 12.2658C32.3362 12.4862 32.3215 12.7572 32.3181 13.079C32.3133 13.6001 32.3771 13.9744 32.5086 14.1993C32.5541 14.2711 32.6617 14.3618 32.8324 14.4712C33.006 14.5761 33.0917 14.7515 33.0886 15.0003C33.0843 15.3155 32.8798 15.5629 32.4731 15.7424C32.0635 15.9238 31.4742 16.0301 30.7007 16.0577C29.9859 16.0843 29.3947 16.0269 28.9317 15.8855C28.7294 15.8223 28.5715 15.728 28.4561 15.6026C28.3406 15.4772 28.2832 15.3369 28.283 15.1816C28.2827 15.0263 28.3192 14.9052 28.3915 14.8185C28.4638 14.7317 28.6223 14.6202 28.8652 14.4829C28.9913 14.4148 29.0794 14.3283 29.1315 14.2234C29.1835 14.1195 29.2228 13.9452 29.2501 13.6995C29.3188 13.1487 29.354 12.426 29.3566 11.5307C29.3574 11.3651 29.3551 11.1667 29.3513 10.9384C29.3357 9.79106 29.3287 9.13322 29.3296 8.9695C29.3354 8.55513 29.3026 8.28046 29.233 8.14459C29.1625 8.00871 28.9776 7.85504 28.6755 7.68261C28.4731 7.57264 28.3712 7.41378 28.3718 7.20796C28.3715 6.71209 28.8244 6.39205 29.7183 6.24766C30.2326 6.16441 30.7543 6.13741 31.2845 6.16575L31.2835 6.16574L31.2854 6.16764Z" fill="#0BAA4B"/>
<path d="M5.11162 2.38705C5.11162 2.38705 4.78744 17.2634 4.79113 17.6639C4.79481 18.0654 5.04841 18.2959 5.04841 18.2959L7.36635 19.7963C7.36635 19.7963 7.84054 20.3374 8.64947 20.3693C8.53209 20.3618 8.37497 20.3321 8.22435 20.2482C7.94253 20.0892 7.67227 19.7368 7.67648 18.9687C7.68234 17.3605 8.13251 4.29751 8.13251 4.29751C8.13251 4.29751 8.13191 4.22078 8.15521 4.10795L5.0999 2.13518C5.08166 2.28083 5.11162 2.38705 5.11162 2.38705Z" fill="#D9BB9F"/>
<path d="M5.73415 1.44012L8.6528 3.38633C8.80998 3.29815 9.01515 3.24071 9.28375 3.2395C10.4402 3.23601 23.7299 3.35012 23.7299 3.35012C23.7299 3.35012 24.0112 3.30889 24.2631 3.47488L24.2726 3.46474C24.2726 3.46474 21.5399 1.83314 21.041 1.54896C20.6604 1.3322 20.1735 1.33825 20.1735 1.33825L6.33788 1.30314C6.0959 1.33098 5.90115 1.37831 5.74258 1.43746C5.73884 1.43833 5.73603 1.43922 5.7332 1.44104L5.73415 1.44012Z" fill="#EDE5DA"/>
<path d="M5.09976 2.13519L8.15508 4.10702C8.19578 3.89999 8.31304 3.57351 8.65277 3.38542L5.7341 1.44015C5.2583 1.6232 5.12751 1.92139 5.09976 2.13519Z" fill="#E4CEB8"/>
<path d="M7.67539 18.9677C7.67212 19.7358 7.94236 20.0892 8.22326 20.2473C8.37387 20.3321 8.53007 20.3608 8.64838 20.3684C8.66328 20.3696 8.6754 20.3698 8.68752 20.37L24.263 3.47488C24.0112 3.30889 23.7298 3.35011 23.7298 3.35011C23.7298 3.35011 10.4401 3.23601 9.28367 3.23949C8.43967 3.24249 8.21503 3.80485 8.15504 4.10794C8.13175 4.21983 8.13234 4.29749 8.13234 4.29749C8.13234 4.29749 7.68217 17.3605 7.67631 18.9687L7.67539 18.9677Z" fill="#EEE9DD"/>
<path d="M9.9373 17.6426C9.91954 18.0427 10.3304 18.0129 10.3304 18.0129L21.8976 17.8453C22.3398 17.8357 22.3038 17.4169 22.3038 17.4169L22.5517 5.25622C22.5573 4.96815 22.3073 4.97341 22.3073 4.97341C22.3073 4.97341 10.6436 5.05437 10.4421 5.05949C10.2397 5.06365 10.2099 5.34478 10.2099 5.34478C10.2099 5.34478 9.95227 17.2414 9.93543 17.6425L9.9373 17.6426Z" fill="#F9F8FC"/>
<path d="M22.7383 9.24088L9.88675 9.25372L9.88647 9.0075L22.738 8.99465L22.7383 9.24088Z" fill="#E8DDD0"/>
<path d="M22.7871 7.69413L9.93559 7.70601L9.93531 7.45978L22.7869 7.4479L22.7871 7.69413Z" fill="#E8DDD0"/>
<path d="M22.7637 8.44132L9.91215 8.4532L9.91188 8.20697L22.7634 8.19509L22.7637 8.44132Z" fill="#E8DDD0"/>
<path d="M22.409 17.5037L22.4096 17.6268L9.74808 17.7007L9.74685 17.4545L22.4081 17.3806L22.409 17.5037Z" fill="#E8DDD0"/>
<path d="M22.5876 16.9599L9.77081 16.8985L9.77197 16.6523L22.5887 16.7137L22.5876 16.9599Z" fill="#E8DDD0"/>
<path d="M22.4807 15.2173L22.4811 15.3404L9.81913 15.3994L9.81789 15.1532L22.4801 15.0942L22.4807 15.2173Z" fill="#E8DDD0"/>
<path d="M22.6627 14.4831L22.6631 14.6062L9.74545 14.6581L9.7447 14.4119L22.6621 14.36L22.6627 14.4831Z" fill="#E8DDD0"/>
<path d="M22.6847 13.7443L22.6849 13.8674L9.76973 13.898L9.76898 13.6517L22.6843 13.6212L22.6847 13.7443Z" fill="#E8DDD0"/>
<path d="M22.8541 12.9687L22.8545 13.0918L9.68987 13.1351L9.68911 12.8889L22.8535 12.8456L22.8541 12.9687Z" fill="#E8DDD0"/>
<path d="M22.8773 12.2506L22.8768 12.3737L9.71373 12.3328L9.71441 12.0866L22.8777 12.1275L22.8773 12.2506Z" fill="#E8DDD0"/>
<path d="M22.5986 11.4385L22.5988 11.5616L9.57153 11.5884L9.57125 11.3422L22.5983 11.3154L22.5986 11.4385Z" fill="#E8DDD0"/>
<path d="M23.0296 10.8361L9.7607 10.8758L9.75994 10.6295L23.0288 10.5899L23.0296 10.8361Z" fill="#E8DDD0"/>
<path d="M22.9496 10.0302L9.62148 9.98472L9.62216 9.73851L22.9503 9.78397L22.9496 10.0302Z" fill="#E8DDD0"/>
<path d="M22.7027 6.87686L9.85112 6.88875L9.85084 6.64252L22.7024 6.63064L22.7027 6.87686Z" fill="#E8DDD0"/>
<path d="M22.7477 5.30156L22.7469 5.42466L9.89862 5.34114L9.90026 5.09494L22.7483 5.17846L22.7477 5.30156Z" fill="#E8DDD0"/>
<path d="M22.728 6.07645L9.87651 6.08833L9.87623 5.84211L22.7278 5.83022L22.728 6.07645Z" fill="#E8DDD0"/>
<path d="M22.4242 16.1535L9.76296 16.2135L9.76173 15.9673L22.423 15.9073L22.4242 16.1535Z" fill="#E8DDD0"/>
<path d="M7.47128 18.911C7.468 19.6791 7.73824 20.0325 8.01914 20.1906C8.16976 20.2754 8.32595 20.3041 8.44426 20.3117C8.45916 20.3129 8.47128 20.3131 8.4834 20.3133C8.58499 20.3168 8.65047 20.3048 8.65047 20.3048C8.65047 20.3048 21.2089 20.1468 22.919 20.0963C24.1954 20.0583 24.1543 18.8684 24.1543 18.8684L24.4491 4.4182C24.4604 3.84112 24.2692 3.55731 24.0589 3.41726C23.8071 3.25127 23.5257 3.2925 23.5257 3.2925C23.5257 3.2925 10.236 3.17839 9.07957 3.18188C8.23557 3.18488 8.01093 3.74723 7.95094 4.05032C7.92765 4.16221 7.92824 4.23987 7.92824 4.23987C7.92824 4.23987 7.47807 17.3029 7.47221 18.9111L7.47128 18.911ZM10.1678 5.51347C10.1678 5.51347 10.1976 5.23702 10.4046 5.23387C10.6108 5.22883 22.1524 5.26094 22.1524 5.26094C22.1524 5.26094 22.4089 5.25579 22.4024 5.53823L21.9549 17.3616C21.9549 17.3616 21.992 17.7729 21.5386 17.7823L10.1474 17.9052C10.1474 17.9052 9.72633 17.9348 9.74396 17.5421C9.76067 17.1485 10.1669 5.51439 10.1669 5.51439L10.1678 5.51347Z" fill="#049ED5"/>
<path d="M13.8549 16.1621L13.3817 16.1871C13.1045 16.2013 12.7916 16.2317 12.4439 16.2765C12.2252 16.3066 12.072 16.3238 11.9871 16.328C11.6847 16.3436 11.4385 16.2872 11.2485 16.1568C11.0576 16.0264 10.9617 15.8462 10.9626 15.6198C10.9624 15.4607 11.0055 15.3342 11.09 15.242C11.1755 15.1498 11.3129 15.0716 11.5042 15.0093C11.685 14.9561 11.8085 14.8777 11.8717 14.7739C11.935 14.6692 11.9858 14.4699 12.0224 14.1739C12.0597 13.833 12.0948 13.1702 12.1278 12.1837C12.1608 11.1953 12.1788 10.2113 12.1827 9.23183C12.1844 8.84639 12.1559 8.58957 12.0975 8.4595C12.039 8.33036 11.9008 8.22518 11.6821 8.14394C11.3661 8.019 11.2082 7.81151 11.2093 7.51869C11.2102 7.29135 11.3203 7.11633 11.5387 6.99267C11.7561 6.86993 12.0592 6.81315 12.4451 6.82322C12.5719 6.8253 12.72 6.83241 12.8915 6.84083C13.2679 6.86291 13.54 6.87673 13.7078 6.88042C14.3388 6.89544 15.043 6.89109 15.8192 6.8692C15.9816 6.86344 16.1839 6.86489 16.4263 6.8698C17.3892 6.89214 18.1378 7.02511 18.6803 7.2651C19.4774 7.61967 20.0657 8.19536 20.45 8.9885C20.7902 9.68175 20.9511 10.5021 20.9346 11.4515C20.9268 11.9294 20.8555 12.4092 20.7189 12.8916C20.5823 13.3749 20.4019 13.7958 20.1769 14.1551C19.708 14.8847 19.0651 15.4158 18.2381 15.7466C17.7472 15.9434 17.2203 16.0564 16.6565 16.0874L15.8953 16.102L15.2339 16.1174C14.7152 16.1276 14.2562 16.1425 13.8558 16.1631L13.8549 16.1621ZM15.2723 8.88768L15.2306 14.045C15.2288 14.3228 15.2844 14.5183 15.3991 14.6297C15.5129 14.742 15.7033 14.7919 15.9702 14.7803C17.1908 14.7292 17.8028 13.7457 17.825 11.8224C17.8369 10.757 17.7069 9.9287 17.4321 9.33758C17.1268 8.68045 16.597 8.34617 15.8371 8.33652C15.632 8.33316 15.4868 8.37475 15.4024 8.45944C15.318 8.54413 15.2746 8.68657 15.2732 8.88863L15.2723 8.88862L15.2723 8.88768Z" fill="#049ED5"/>
</g>
<defs>
<filter id="filter0_d_2715_1914" x="0.38623" y="-0.5" width="41.1792" height="39.0156" filterUnits="userSpaceOnUse" color-interpolation-filters="sRGB">
<feFlood flood-opacity="0" result="BackgroundImageFix"/>
<feColorMatrix in="SourceAlpha" type="matrix" values="0 0 0 0 0 0 0 0 0 0 0 0 0 0 0 0 0 0 127 0" result="hardAlpha"/>
<feOffset dx="-4" dy="-1"/>
<feColorMatrix type="matrix" values="0 0 0 0 0 0 0 0 0 0 0 0 0 0 0 0 0 0 0.2 0"/>
<feBlend mode="normal" in2="BackgroundImageFix" result="effect1_dropShadow_2715_1914"/>
<feBlend mode="normal" in="SourceGraphic" in2="effect1_dropShadow_2715_1914" result="shape"/>
</filter>
<clipPath id="clip0_2715_1914">
<rect width="36.5705" height="37.4209" fill="white" transform="translate(5 0.5) rotate(0.939607)"/>
</clipPath>
</defs>
</svg>
